# Exported from Wings 3D 1.5.3
mtllib testObj.mtl
o Cube
#8 vertices, 6 faces
v 10.00000000 -1.00000000 -9.99999900
v 10.00000000 -1.00000000 10.00000000
v -10.00000100 -1.00000000 9.99999800
v -9.99999600 -1.00000000 -10.00000400
v 10.00000500 1.00000000 -9.99999400
v 9.99999300 1.00000000 10.00000600
v -10.00000400 1.00000000 9.99999600
v -9.99999900 1.00000000 -10.00000000
vn 0.0000000e+0 -1.00000000 0.0000000e+0
vn 1.00000000 4.9999918e-7 3.0000001e-7
vn 2.7500000e-7 2.2499999e-6 -1.00000000
vn 0.0000000e+0 -1.00000000 0.0000000e+0
vn 1.00000000 4.9999918e-7 3.0000001e-7
vn -3.0000002e-7 -1.0000008e-6 1.00000000
vn 0.0000000e+0 -1.00000000 0.0000000e+0
vn -3.0000002e-7 -1.0000008e-6 1.00000000
vn -1.00000000 -1.4999999e-6 -2.5000001e-7
vn 0.0000000e+0 -1.00000000 0.0000000e+0
vn -1.00000000 -1.4999999e-6 -2.5000001e-7
vn 2.7500000e-7 2.2499999e-6 -1.00000000
vn 0.0000000e+0 1.00000000 0.0000000e+0
vn 1.00000000 4.9999918e-7 3.0000001e-7
vn 2.7500000e-7 2.2499999e-6 -1.00000000
vn 0.0000000e+0 1.00000000 0.0000000e+0
vn 1.00000000 4.9999918e-7 3.0000001e-7
vn -3.0000002e-7 -1.0000008e-6 1.00000000
vn 0.0000000e+0 1.00000000 0.0000000e+0
vn -3.0000002e-7 -1.0000008e-6 1.00000000
vn -1.00000000 -1.4999999e-6 -2.5000001e-7
vn 0.0000000e+0 1.00000000 0.0000000e+0
vn -1.00000000 -1.4999999e-6 -2.5000001e-7
vn 2.7500000e-7 2.2499999e-6 -1.00000000
g Cube_Material
usemtl Material
s 1
f 2//4 3//7 4//10 1//1
f 5//13 8//22 7//19 6//16
s 2
f 2//6 6//18 7//20 3//8
f 4//12 8//24 5//15 1//3
s 3
f 1//2 5//14 6//17 2//5
f 3//9 7//21 8//23 4//11
